<?xml version="1.0" standalone="no"?>
<!DOCTYPE svg PUBLIC "-//W3C//DTD SVG 20010904//EN"
 "http://www.w3.org/TR/2001/REC-SVG-20010904/DTD/svg10.dtd">
<svg version="1.0" xmlns="http://www.w3.org/2000/svg"
 width="460.000000pt" height="460.000000pt" viewBox="0 0 460.000000 460.000000"
 preserveAspectRatio="xMidYMid meet">
<metadata>
Created by potrace 1.14, written by Peter Selinger 2001-2017
</metadata>
<g transform="translate(0.000000,460.000000) scale(0.100000,-0.100000)"
fill="#000000" stroke="none">
<path d="M0 2300 l0 -2300 2300 0 2300 0 0 2300 0 2300 -2300 0 -2300 0 0
-2300z m2480 1589 c36 -6 89 -19 117 -30 57 -20 195 -87 203 -98 3 -4 15 -14
27 -22 44 -31 131 -117 170 -170 48 -65 93 -141 93 -157 0 -8 -21 -12 -59 -12
-47 0 -60 -4 -66 -17 -4 -10 -10 -69 -13 -130 -4 -111 -5 -113 -28 -113 -13 0
-24 5 -24 11 0 6 -16 9 -37 7 -36 -3 -38 -5 -44 -43 -5 -32 -6 -25 -8 33 -1
80 -15 97 -55 72 -11 -8 -31 -19 -43 -25 -13 -7 -20 -15 -16 -18 3 -4 1 -7 -5
-7 -14 0 -16 -37 -3 -42 5 -1 3 -9 -5 -16 -12 -11 -14 0 -14 73 0 47 -4 85 -9
85 -5 0 -9 16 -8 36 1 19 -3 38 -8 42 -6 4 -10 41 -11 82 -2 149 -44 253 -124
306 -48 32 -152 64 -208 64 -87 0 -140 -27 -233 -119 l-86 -86 -12 -145 c-14
-158 -12 -174 36 -243 21 -30 24 -42 16 -60 -14 -30 -7 -67 18 -93 l20 -21
-61 -27 c-34 -14 -68 -26 -76 -26 -8 0 -24 -9 -36 -20 -30 -28 -38 -25 -38 15
0 27 -7 39 -30 57 -16 12 -30 28 -30 35 0 7 -7 13 -15 13 -9 0 -15 -9 -15 -25
0 -14 -4 -33 -9 -43 -5 -9 -14 -42 -20 -72 -6 -37 -9 -42 -7 -17 2 32 -1 38
-21 43 -13 4 -23 10 -23 16 0 5 -10 8 -22 6 -20 -3 -24 -10 -29 -63 -3 -33 -6
-45 -7 -28 -2 26 -7 34 -28 39 -19 5 -29 2 -36 -10 -5 -9 -15 -16 -22 -16 -18
0 -30 271 -16 338 57 255 239 478 475 579 117 50 156 61 275 76 36 4 134 -2
210 -14z m-121 -115 c51 -10 35 -23 -21 -18 -39 4 -68 0 -108 -15 l-55 -21 47
6 c43 5 47 3 42 -13 -6 -16 -5 -16 8 1 16 20 38 15 38 -10 0 -10 -14 -14 -52
-14 -29 0 -64 -3 -77 -7 -21 -5 -23 -3 -17 18 6 22 5 21 -9 -3 -9 -16 -24 -28
-35 -28 -28 0 -25 14 10 44 64 54 149 76 229 60z m-254 -126 c-11 -7 -29 -18
-40 -24 -11 -6 -31 -26 -44 -45 -21 -31 -23 -42 -19 -134 3 -55 1 -89 -3 -75
-15 51 -10 173 9 210 18 36 73 80 101 80 12 0 11 -3 -4 -12z m-3 -85 c25 -23
22 -51 -7 -65 -19 -8 -28 -8 -40 2 -18 15 -20 51 -3 68 16 16 28 15 50 -5z
m505 -40 c4 -9 1 -19 -5 -21 -15 -5 -16 -42 -2 -42 6 0 10 -4 10 -10 0 -5 -6
-10 -14 -10 -15 0 -32 72 -21 90 9 15 25 12 32 -7z m-507 -63 c0 -5 -7 -10
-15 -10 -8 0 -15 5 -15 10 0 6 7 10 15 10 8 0 15 -4 15 -10z m-91 -135 c5 2 6
-7 3 -20 -6 -32 -22 -22 -21 13 0 15 3 21 6 14 2 -6 8 -10 12 -7z m17 -40 c-3
-8 -2 -15 3 -15 11 0 32 -50 26 -60 -3 -5 -1 -11 5 -15 5 -3 10 -1 10 5 0 6 5
8 10 5 6 -3 10 -11 10 -16 0 -6 -4 -7 -10 -4 -5 3 -10 2 -10 -4 0 -5 21 -17
47 -27 25 -10 41 -20 35 -22 -19 -6 -103 30 -99 42 3 7 -1 20 -9 31 -8 10 -14
15 -14 10 0 -5 -6 0 -14 10 -10 14 -11 26 -4 47 6 15 12 28 15 28 3 0 3 -7 -1
-15z m74 -159 c8 -3 2 -4 -15 0 -29 5 -29 5 -10 -10 15 -11 16 -15 5 -16 -25
0 -41 16 -34 33 4 12 11 14 22 8 10 -4 24 -11 32 -15z m637 8 c-3 -3 -12 -4
-19 -1 -8 3 -5 6 6 6 11 1 17 -2 13 -5z m410 -46 c-3 -8 -6 -5 -6 6 -1 11 2
17 5 13 3 -3 4 -12 1 -19z m-1068 -17 c0 -10 -2 -11 -6 -3 -2 6 -8 10 -13 7
-4 -3 -10 1 -13 9 -4 10 0 12 14 9 10 -3 19 -13 18 -22z m618 13 c-3 -3 -12
-4 -19 -1 -8 3 -5 6 6 6 11 1 17 -2 13 -5z m-191 -79 l-9 -64 -48 26 c-27 14
-46 30 -43 35 3 5 13 7 21 4 8 -3 11 -1 8 4 -3 6 -1 10 5 10 6 0 8 4 5 10 -3
5 0 7 8 5 7 -3 22 3 32 15 10 11 21 20 25 20 3 0 2 -29 -4 -65z m-716 29 c0
-3 -7 -12 -15 -20 -16 -17 -18 -14 -9 10 6 15 24 23 24 10z m620 -14 c-27 -21
-40 -25 -40 -12 0 5 12 13 28 19 39 16 40 15 12 -7z m-180 -21 c0 -6 9 -8 23
-3 18 5 17 3 -8 -17 -16 -13 -36 -29 -43 -36 -7 -7 -19 -13 -25 -12 -9 0 -9 2
0 5 7 3 9 18 6 40 -5 31 -4 34 21 34 14 0 26 -5 26 -11z m-530 -43 c0 -3 -4
-8 -10 -11 -5 -3 -10 -1 -10 4 0 6 5 11 10 11 6 0 10 -2 10 -4z m573 -45 c7
-33 5 -51 -9 -79 -10 -20 -17 -40 -16 -44 1 -4 -7 -10 -18 -13 -11 -4 -20 -11
-20 -16 0 -6 6 -7 13 -3 6 4 8 3 4 -1 -17 -19 -32 -11 -32 16 -1 20 3 25 11
19 11 -10 24 -3 24 12 0 5 -4 6 -10 3 -13 -8 -13 18 0 31 6 6 3 10 -9 10 -13
0 -17 -6 -13 -21 3 -11 2 -18 -1 -15 -3 3 -9 21 -12 40 -4 27 -3 32 6 20 9
-13 10 -12 5 3 -3 9 -9 23 -12 31 -5 14 52 56 71 52 5 -1 13 -22 18 -45z m145
40 c8 -4 14 -12 15 -17 1 -5 6 -8 10 -6 5 1 6 -2 2 -8 -3 -5 1 -13 10 -16 12
-5 13 -9 4 -20 -9 -11 -8 -14 2 -14 11 0 11 -2 -1 -10 -8 -5 -11 -10 -7 -10 4
0 2 -10 -4 -22 -7 -13 -14 -43 -16 -68 -4 -62 -14 -110 -23 -110 -4 0 -10 21
-14 48 -3 26 -15 76 -27 112 -32 103 -7 177 49 141z m-731 -53 c-3 -8 -6 -5
-6 6 -1 11 2 17 5 13 3 -3 4 -12 1 -19z m0 -70 c-3 -7 -5 -2 -5 12 0 14 2 19
5 13 2 -7 2 -19 0 -25z m-27 -68 c0 -5 -7 -10 -15 -10 -8 0 -15 5 -15 10 0 6
7 10 15 10 8 0 15 -4 15 -10z m0 -30 c0 -5 -9 -10 -21 -10 -13 0 -23 -8 -26
-21 -4 -14 -8 -17 -13 -9 -4 7 0 21 8 31 17 20 52 26 52 9z m60 -20 c0 -11 -2
-20 -4 -20 -2 0 -6 9 -9 20 -3 11 -1 20 4 20 5 0 9 -9 9 -20z m501 -13 c-10
-9 -11 -8 -5 6 3 10 9 15 12 12 3 -3 0 -11 -7 -18z m-554 -15 c2 -14 -2 -22
-12 -22 -9 0 -15 10 -15 26 0 31 22 28 27 -4z"/>
</g>
</svg>
